%FSLAX45Y45*%
G04 Gerber Fmt 4.5, Leading zero omitted, Abs format (unit mm)*
G04 Created by KiCad (PCBNEW (5.1.2)-1) date 2025-05-14 22:28:00*
%MOMM*%
%LPD*%
G04 APERTURE LIST*
%ADD10C,0.050000*%
%ADD11C,0.200000*%
%ADD12C,0.300000*%
G04 APERTURE END LIST*
D10*
X14580000Y-12860000D02*
G75*
G03X14580000Y-12860000I-30000J0D01*
G01*
X14580000Y-12760000D02*
G75*
G03X14580000Y-12760000I-30000J0D01*
G01*
X14580000Y-12670000D02*
G75*
G03X14580000Y-12670000I-30000J0D01*
G01*
X14580000Y-12580000D02*
G75*
G03X14580000Y-12580000I-30000J0D01*
G01*
X14580000Y-12490000D02*
G75*
G03X14580000Y-12490000I-30000J0D01*
G01*
X14580000Y-12400000D02*
G75*
G03X14580000Y-12400000I-30000J0D01*
G01*
X14580000Y-12310000D02*
G75*
G03X14580000Y-12310000I-30000J0D01*
G01*
X14580000Y-12220000D02*
G75*
G03X14580000Y-12220000I-30000J0D01*
G01*
X14580000Y-12130000D02*
G75*
G03X14580000Y-12130000I-30000J0D01*
G01*
X14580000Y-12040000D02*
G75*
G03X14580000Y-12040000I-30000J0D01*
G01*
X14580000Y-11950000D02*
G75*
G03X14580000Y-11950000I-30000J0D01*
G01*
X14580000Y-11860000D02*
G75*
G03X14580000Y-11860000I-30000J0D01*
G01*
X14580000Y-11770000D02*
G75*
G03X14580000Y-11770000I-30000J0D01*
G01*
X14580000Y-11680000D02*
G75*
G03X14580000Y-11680000I-30000J0D01*
G01*
X14580000Y-11590000D02*
G75*
G03X14580000Y-11590000I-30000J0D01*
G01*
X14580000Y-11500000D02*
G75*
G03X14580000Y-11500000I-30000J0D01*
G01*
X14580000Y-11410000D02*
G75*
G03X14580000Y-11410000I-30000J0D01*
G01*
X14580000Y-11320000D02*
G75*
G03X14580000Y-11320000I-30000J0D01*
G01*
X14580000Y-11230000D02*
G75*
G03X14580000Y-11230000I-30000J0D01*
G01*
X14580000Y-11140000D02*
G75*
G03X14580000Y-11140000I-30000J0D01*
G01*
X14580000Y-11050000D02*
G75*
G03X14580000Y-11050000I-30000J0D01*
G01*
X14580000Y-10960000D02*
G75*
G03X14580000Y-10960000I-30000J0D01*
G01*
X14580000Y-10870000D02*
G75*
G03X14580000Y-10870000I-30000J0D01*
G01*
X14580000Y-10780000D02*
G75*
G03X14580000Y-10780000I-30000J0D01*
G01*
X14580000Y-10690000D02*
G75*
G03X14580000Y-10690000I-30000J0D01*
G01*
X14580000Y-10600000D02*
G75*
G03X14580000Y-10600000I-30000J0D01*
G01*
X14580000Y-10510000D02*
G75*
G03X14580000Y-10510000I-30000J0D01*
G01*
X14580000Y-10420000D02*
G75*
G03X14580000Y-10420000I-30000J0D01*
G01*
X14580000Y-10330000D02*
G75*
G03X14580000Y-10330000I-30000J0D01*
G01*
X14580000Y-10240000D02*
G75*
G03X14580000Y-10240000I-30000J0D01*
G01*
X14580000Y-10150000D02*
G75*
G03X14580000Y-10150000I-30000J0D01*
G01*
X14580000Y-10060000D02*
G75*
G03X14580000Y-10060000I-30000J0D01*
G01*
X14580000Y-9970000D02*
G75*
G03X14580000Y-9970000I-30000J0D01*
G01*
X14580000Y-9880000D02*
G75*
G03X14580000Y-9880000I-30000J0D01*
G01*
X14580000Y-9785000D02*
G75*
G03X14580000Y-9785000I-30000J0D01*
G01*
X14580000Y-9690000D02*
G75*
G03X14580000Y-9690000I-30000J0D01*
G01*
X14580000Y-9600000D02*
G75*
G03X14580000Y-9600000I-30000J0D01*
G01*
X14580000Y-9510000D02*
G75*
G03X14580000Y-9510000I-30000J0D01*
G01*
X14580000Y-9420000D02*
G75*
G03X14580000Y-9420000I-30000J0D01*
G01*
X14580000Y-9335000D02*
G75*
G03X14580000Y-9335000I-30000J0D01*
G01*
X14650000Y-9200000D02*
X18600000Y-9200000D01*
X14450000Y-9200000D02*
X9900000Y-9200000D01*
X14650000Y-13000000D02*
X18600000Y-13000000D01*
X9900000Y-13000000D02*
X14450000Y-13000000D01*
X18700000Y-12900000D02*
G75*
G02X18600000Y-13000000I-100000J0D01*
G01*
X14650000Y-13000000D02*
G75*
G02X14550000Y-12900000I0J100000D01*
G01*
X14550000Y-12900000D02*
G75*
G02X14450000Y-13000000I-100000J0D01*
G01*
X14450000Y-9200000D02*
G75*
G02X14550000Y-9300000I0J-100000D01*
G01*
X14550000Y-9300000D02*
G75*
G02X14650000Y-9200000I100000J0D01*
G01*
X18600000Y-9200000D02*
G75*
G02X18700000Y-9300000I0J-100000D01*
G01*
X9900000Y-13000000D02*
G75*
G02X9800000Y-12900000I0J100000D01*
G01*
X9800000Y-9300000D02*
G75*
G02X9900000Y-9200000I100000J0D01*
G01*
X9800000Y-12900000D02*
X9800000Y-9300000D01*
X18700000Y-9300000D02*
X18700000Y-12900000D01*
D11*
X11459999Y-11300000D02*
X11499999Y-11340000D01*
X11499999Y-11300000D02*
X11459999Y-11340000D01*
X11539999Y-12120000D02*
X11579999Y-12160000D01*
X11579999Y-12120000D02*
X11539999Y-12160000D01*
X11576900Y-11128140D02*
X11616900Y-11168140D01*
X11616900Y-11128140D02*
X11576900Y-11168140D01*
X11579999Y-11690000D02*
X11619999Y-11730000D01*
X11619999Y-11690000D02*
X11579999Y-11730000D01*
X11590000Y-12510000D02*
X11630000Y-12550000D01*
X11630000Y-12510000D02*
X11590000Y-12550000D01*
X11603760Y-10281680D02*
X11643760Y-10321680D01*
X11643760Y-10281680D02*
X11603760Y-10321680D01*
X11720000Y-11990000D02*
X11760000Y-12030000D01*
X11760000Y-11990000D02*
X11720000Y-12030000D01*
X11770000Y-12740000D02*
X11810000Y-12780000D01*
X11810000Y-12740000D02*
X11770000Y-12780000D01*
X11890000Y-12780000D02*
X11930000Y-12820000D01*
X11930000Y-12780000D02*
X11890000Y-12820000D01*
X12059999Y-12500000D02*
X12099999Y-12540000D01*
X12099999Y-12500000D02*
X12059999Y-12540000D01*
X12089999Y-11930000D02*
X12129999Y-11970000D01*
X12129999Y-11930000D02*
X12089999Y-11970000D01*
X12180000Y-11440000D02*
X12220000Y-11480000D01*
X12220000Y-11440000D02*
X12180000Y-11480000D01*
X12186640Y-12597370D02*
X12226640Y-12637370D01*
X12226640Y-12597370D02*
X12186640Y-12637370D01*
X12259690Y-10451990D02*
X12299690Y-10491990D01*
X12299690Y-10451990D02*
X12259690Y-10491990D01*
X12307330Y-10603760D02*
X12347330Y-10643760D01*
X12347330Y-10603760D02*
X12307330Y-10643760D01*
X12371200Y-10526150D02*
X12411200Y-10566150D01*
X12411200Y-10526150D02*
X12371200Y-10566150D01*
X12445420Y-10657100D02*
X12485420Y-10697100D01*
X12485420Y-10657100D02*
X12445420Y-10697100D01*
X12450000Y-11970000D02*
X12490000Y-12010000D01*
X12490000Y-11970000D02*
X12450000Y-12010000D01*
X12480001Y-11439999D02*
X12520001Y-11479999D01*
X12520001Y-11439999D02*
X12480001Y-11479999D01*
X12496460Y-11161290D02*
X12536460Y-11201290D01*
X12536460Y-11161290D02*
X12496460Y-11201290D01*
X12500110Y-10160260D02*
X12540110Y-10200260D01*
X12540110Y-10160260D02*
X12500110Y-10200260D01*
X12583250Y-12740000D02*
X12623250Y-12780000D01*
X12623250Y-12740000D02*
X12583250Y-12780000D01*
X12589700Y-11551430D02*
X12629700Y-11591430D01*
X12629700Y-11551430D02*
X12589700Y-11591430D01*
X12693660Y-10646160D02*
X12733660Y-10686160D01*
X12733660Y-10646160D02*
X12693660Y-10686160D01*
X12719999Y-12040000D02*
X12759999Y-12080000D01*
X12759999Y-12040000D02*
X12719999Y-12080000D01*
X12723760Y-11691680D02*
X12763760Y-11731680D01*
X12763760Y-11691680D02*
X12723760Y-11731680D01*
X12903760Y-9401680D02*
X12943760Y-9441680D01*
X12943760Y-9401680D02*
X12903760Y-9441680D01*
X12993760Y-10701680D02*
X13033760Y-10741680D01*
X13033760Y-10701680D02*
X12993760Y-10741680D01*
X13019999Y-9800000D02*
X13059999Y-9840000D01*
X13059999Y-9800000D02*
X13019999Y-9840000D01*
X13096760Y-9992450D02*
X13136760Y-10032450D01*
X13136760Y-9992450D02*
X13096760Y-10032450D01*
X13118250Y-10413000D02*
X13158250Y-10453000D01*
X13158250Y-10413000D02*
X13118250Y-10453000D01*
X13503760Y-12371680D02*
X13543760Y-12411680D01*
X13543760Y-12371680D02*
X13503760Y-12411680D01*
X13510000Y-12630000D02*
X13550000Y-12670000D01*
X13550000Y-12630000D02*
X13510000Y-12670000D01*
X13950000Y-11640000D02*
X13990000Y-11680000D01*
X13990000Y-11640000D02*
X13950000Y-11680000D01*
X13963760Y-10961680D02*
X14003760Y-11001680D01*
X14003760Y-10961680D02*
X13963760Y-11001680D01*
X13993760Y-9851680D02*
X14033760Y-9891680D01*
X14033760Y-9851680D02*
X13993760Y-9891680D01*
X14093760Y-12851680D02*
X14133760Y-12891680D01*
X14133760Y-12851680D02*
X14093760Y-12891680D01*
X14973760Y-12801680D02*
X15013760Y-12841680D01*
X15013760Y-12801680D02*
X14973760Y-12841680D01*
X15433760Y-9491680D02*
X15473760Y-9531680D01*
X15473760Y-9491680D02*
X15433760Y-9531680D01*
X15434980Y-10007490D02*
X15474980Y-10047490D01*
X15474980Y-10007490D02*
X15434980Y-10047490D01*
X16009999Y-9650000D02*
X16049999Y-9690000D01*
X16049999Y-9650000D02*
X16009999Y-9690000D01*
X16137550Y-10109880D02*
X16177550Y-10149880D01*
X16177550Y-10109880D02*
X16137550Y-10149880D01*
X16191000Y-10896000D02*
X16231000Y-10936000D01*
X16231000Y-10896000D02*
X16191000Y-10936000D01*
X16233200Y-12479850D02*
X16273200Y-12519850D01*
X16273200Y-12479850D02*
X16233200Y-12519850D01*
X16277414Y-11955384D02*
X16317414Y-11995384D01*
X16317414Y-11955384D02*
X16277414Y-11995384D01*
X16293760Y-12681680D02*
X16333760Y-12721680D01*
X16333760Y-12681680D02*
X16293760Y-12721680D01*
X16299999Y-11470000D02*
X16339999Y-11510000D01*
X16339999Y-11470000D02*
X16299999Y-11510000D01*
X16440000Y-11820002D02*
X16480000Y-11860002D01*
X16480000Y-11820002D02*
X16440000Y-11860002D01*
X16443760Y-12721679D02*
X16483760Y-12761679D01*
X16483760Y-12721679D02*
X16443760Y-12761679D01*
X16460920Y-12561200D02*
X16500920Y-12601200D01*
X16500920Y-12561200D02*
X16460920Y-12601200D01*
X16529999Y-12660000D02*
X16569999Y-12700000D01*
X16569999Y-12660000D02*
X16529999Y-12700000D01*
X16589999Y-11160000D02*
X16629999Y-11200000D01*
X16629999Y-11160000D02*
X16589999Y-11200000D01*
X16590000Y-11410000D02*
X16630000Y-11450000D01*
X16630000Y-11410000D02*
X16590000Y-11450000D01*
X16629530Y-12305640D02*
X16669530Y-12345640D01*
X16669530Y-12305640D02*
X16629530Y-12345640D01*
X16652740Y-10080890D02*
X16692740Y-10120890D01*
X16692740Y-10080890D02*
X16652740Y-10120890D01*
X16705960Y-12373020D02*
X16745960Y-12413020D01*
X16745960Y-12373020D02*
X16705960Y-12413020D01*
X16757260Y-11874490D02*
X16797260Y-11914490D01*
X16797260Y-11874490D02*
X16757260Y-11914490D01*
X16809270Y-10423640D02*
X16849270Y-10463640D01*
X16849270Y-10423640D02*
X16809270Y-10463640D01*
X16819999Y-11380000D02*
X16859999Y-11420000D01*
X16859999Y-11380000D02*
X16819999Y-11420000D01*
X16832501Y-10543323D02*
X16872501Y-10583323D01*
X16872501Y-10543323D02*
X16832501Y-10583323D01*
X16929998Y-11890000D02*
X16969998Y-11930000D01*
X16969998Y-11890000D02*
X16929998Y-11930000D01*
X16931447Y-10569887D02*
X16971447Y-10609887D01*
X16971447Y-10569887D02*
X16931447Y-10609887D01*
X16935000Y-11426890D02*
X16975000Y-11466890D01*
X16975000Y-11426890D02*
X16935000Y-11466890D01*
X16941870Y-10862930D02*
X16981870Y-10902930D01*
X16981870Y-10862930D02*
X16941870Y-10902930D01*
X17086726Y-10394194D02*
X17126726Y-10434194D01*
X17126726Y-10394194D02*
X17086726Y-10434194D01*
X17093760Y-12421680D02*
X17133760Y-12461680D01*
X17133760Y-12421680D02*
X17093760Y-12461680D01*
X17162250Y-12039350D02*
X17202250Y-12079350D01*
X17202250Y-12039350D02*
X17162250Y-12079350D01*
X17233760Y-10471680D02*
X17273760Y-10511680D01*
X17273760Y-10471680D02*
X17233760Y-10511680D01*
X17233780Y-11440510D02*
X17273780Y-11480510D01*
X17273780Y-11440510D02*
X17233780Y-11480510D01*
X17237000Y-11340460D02*
X17277000Y-11380460D01*
X17277000Y-11340460D02*
X17237000Y-11380460D01*
X17303760Y-9681680D02*
X17343760Y-9721680D01*
X17343760Y-9681680D02*
X17303760Y-9721680D01*
X17403760Y-10401680D02*
X17443760Y-10441680D01*
X17443760Y-10401680D02*
X17403760Y-10441680D01*
X18033760Y-11631680D02*
X18073760Y-11671680D01*
X18073760Y-11631680D02*
X18033760Y-11671680D01*
X18081890Y-10998710D02*
X18121890Y-11038710D01*
X18121890Y-10998710D02*
X18081890Y-11038710D01*
X18203760Y-12381680D02*
X18243760Y-12421680D01*
X18243760Y-12381680D02*
X18203760Y-12421680D01*
X18383760Y-12771680D02*
X18423760Y-12811680D01*
X18423760Y-12771680D02*
X18383760Y-12811680D01*
X18600000Y-10300000D02*
G75*
G03X18600000Y-10300000I-50000J0D01*
G01*
X18600000Y-10554000D02*
G75*
G03X18600000Y-10554000I-50000J0D01*
G01*
X18600000Y-10808000D02*
G75*
G03X18600000Y-10808000I-50000J0D01*
G01*
X18600000Y-11062000D02*
G75*
G03X18600000Y-11062000I-50000J0D01*
G01*
X18600000Y-11316000D02*
G75*
G03X18600000Y-11316000I-50000J0D01*
G01*
X18600000Y-11570000D02*
G75*
G03X18600000Y-11570000I-50000J0D01*
G01*
X18600000Y-11824000D02*
G75*
G03X18600000Y-11824000I-50000J0D01*
G01*
X18600000Y-12078000D02*
G75*
G03X18600000Y-12078000I-50000J0D01*
G01*
X18600000Y-12332000D02*
G75*
G03X18600000Y-12332000I-50000J0D01*
G01*
X18600000Y-12586000D02*
G75*
G03X18600000Y-12586000I-50000J0D01*
G01*
X10050000Y-10300000D02*
G75*
G03X10050000Y-10300000I-50000J0D01*
G01*
X10050000Y-10554000D02*
G75*
G03X10050000Y-10554000I-50000J0D01*
G01*
X10050000Y-10808000D02*
G75*
G03X10050000Y-10808000I-50000J0D01*
G01*
X10050000Y-11062000D02*
G75*
G03X10050000Y-11062000I-50000J0D01*
G01*
X10050000Y-11316000D02*
G75*
G03X10050000Y-11316000I-50000J0D01*
G01*
X10050000Y-11570000D02*
G75*
G03X10050000Y-11570000I-50000J0D01*
G01*
X10050000Y-11824000D02*
G75*
G03X10050000Y-11824000I-50000J0D01*
G01*
X10050000Y-12078000D02*
G75*
G03X10050000Y-12078000I-50000J0D01*
G01*
X10050000Y-12332000D02*
G75*
G03X10050000Y-12332000I-50000J0D01*
G01*
X10050000Y-12586000D02*
G75*
G03X10050000Y-12586000I-50000J0D01*
G01*
X11642000Y-9400000D02*
G75*
G03X11642000Y-9400000I-50000J0D01*
G01*
X11896000Y-9400000D02*
G75*
G03X11896000Y-9400000I-50000J0D01*
G01*
X12150000Y-9400000D02*
G75*
G03X12150000Y-9400000I-50000J0D01*
G01*
X12404000Y-9400000D02*
G75*
G03X12404000Y-9400000I-50000J0D01*
G01*
X12658000Y-9400000D02*
G75*
G03X12658000Y-9400000I-50000J0D01*
G01*
X14850000Y-10300000D02*
G75*
G03X14850000Y-10300000I-50000J0D01*
G01*
X14850000Y-10554000D02*
G75*
G03X14850000Y-10554000I-50000J0D01*
G01*
X14850000Y-10808000D02*
G75*
G03X14850000Y-10808000I-50000J0D01*
G01*
X14850000Y-11062000D02*
G75*
G03X14850000Y-11062000I-50000J0D01*
G01*
X14850000Y-11316000D02*
G75*
G03X14850000Y-11316000I-50000J0D01*
G01*
X14850000Y-11570000D02*
G75*
G03X14850000Y-11570000I-50000J0D01*
G01*
X14850000Y-11824000D02*
G75*
G03X14850000Y-11824000I-50000J0D01*
G01*
X14850000Y-12078000D02*
G75*
G03X14850000Y-12078000I-50000J0D01*
G01*
X14850000Y-12332000D02*
G75*
G03X14850000Y-12332000I-50000J0D01*
G01*
X14850000Y-12586000D02*
G75*
G03X14850000Y-12586000I-50000J0D01*
G01*
X14350000Y-10300000D02*
G75*
G03X14350000Y-10300000I-50000J0D01*
G01*
X14350000Y-10554000D02*
G75*
G03X14350000Y-10554000I-50000J0D01*
G01*
X14350000Y-10808000D02*
G75*
G03X14350000Y-10808000I-50000J0D01*
G01*
X14350000Y-11062000D02*
G75*
G03X14350000Y-11062000I-50000J0D01*
G01*
X14350000Y-11316000D02*
G75*
G03X14350000Y-11316000I-50000J0D01*
G01*
X14350000Y-11570000D02*
G75*
G03X14350000Y-11570000I-50000J0D01*
G01*
X14350000Y-11824000D02*
G75*
G03X14350000Y-11824000I-50000J0D01*
G01*
X14350000Y-12078000D02*
G75*
G03X14350000Y-12078000I-50000J0D01*
G01*
X14350000Y-12332000D02*
G75*
G03X14350000Y-12332000I-50000J0D01*
G01*
X14350000Y-12586000D02*
G75*
G03X14350000Y-12586000I-50000J0D01*
G01*
X16250000Y-9400000D02*
G75*
G03X16250000Y-9400000I-50000J0D01*
G01*
X16504000Y-9400000D02*
G75*
G03X16504000Y-9400000I-50000J0D01*
G01*
X16758000Y-9400000D02*
G75*
G03X16758000Y-9400000I-50000J0D01*
G01*
X17012000Y-9400000D02*
G75*
G03X17012000Y-9400000I-50000J0D01*
G01*
X17266000Y-9400000D02*
G75*
G03X17266000Y-9400000I-50000J0D01*
G01*
X10100000Y-9340000D02*
X10100000Y-9660000D01*
X9940000Y-9500000D02*
X10260000Y-9500000D01*
X14900000Y-9340000D02*
X14900000Y-9660000D01*
X14740000Y-9500000D02*
X15060000Y-9500000D01*
X18400000Y-9340000D02*
X18400000Y-9660000D01*
X18240000Y-9500000D02*
X18560000Y-9500000D01*
X14200000Y-9340000D02*
X14200000Y-9660000D01*
X14040000Y-9500000D02*
X14360000Y-9500000D01*
D12*
X10083928Y-13468214D02*
X10083928Y-13168214D01*
X10155357Y-13168214D01*
X10198214Y-13182500D01*
X10226786Y-13211071D01*
X10241071Y-13239643D01*
X10255357Y-13296786D01*
X10255357Y-13339643D01*
X10241071Y-13396786D01*
X10226786Y-13425357D01*
X10198214Y-13453929D01*
X10155357Y-13468214D01*
X10083928Y-13468214D01*
X10383928Y-13468214D02*
X10383928Y-13268214D01*
X10383928Y-13325357D02*
X10398214Y-13296786D01*
X10412500Y-13282500D01*
X10441071Y-13268214D01*
X10469643Y-13268214D01*
X10569643Y-13468214D02*
X10569643Y-13268214D01*
X10569643Y-13168214D02*
X10555357Y-13182500D01*
X10569643Y-13196786D01*
X10583928Y-13182500D01*
X10569643Y-13168214D01*
X10569643Y-13196786D01*
X10755357Y-13468214D02*
X10726786Y-13453929D01*
X10712500Y-13425357D01*
X10712500Y-13168214D01*
X10912500Y-13468214D02*
X10883928Y-13453929D01*
X10869643Y-13425357D01*
X10869643Y-13168214D01*
X11255357Y-13468214D02*
X11255357Y-13168214D01*
X11355357Y-13382500D01*
X11455357Y-13168214D01*
X11455357Y-13468214D01*
X11726786Y-13468214D02*
X11726786Y-13311071D01*
X11712500Y-13282500D01*
X11683928Y-13268214D01*
X11626786Y-13268214D01*
X11598214Y-13282500D01*
X11726786Y-13453929D02*
X11698214Y-13468214D01*
X11626786Y-13468214D01*
X11598214Y-13453929D01*
X11583928Y-13425357D01*
X11583928Y-13396786D01*
X11598214Y-13368214D01*
X11626786Y-13353929D01*
X11698214Y-13353929D01*
X11726786Y-13339643D01*
X11869643Y-13268214D02*
X11869643Y-13568214D01*
X11869643Y-13282500D02*
X11898214Y-13268214D01*
X11955357Y-13268214D01*
X11983928Y-13282500D01*
X11998214Y-13296786D01*
X12012500Y-13325357D01*
X12012500Y-13411071D01*
X11998214Y-13439643D01*
X11983928Y-13453929D01*
X11955357Y-13468214D01*
X11898214Y-13468214D01*
X11869643Y-13453929D01*
X12141071Y-13439643D02*
X12155357Y-13453929D01*
X12141071Y-13468214D01*
X12126786Y-13453929D01*
X12141071Y-13439643D01*
X12141071Y-13468214D01*
X12141071Y-13282500D02*
X12155357Y-13296786D01*
X12141071Y-13311071D01*
X12126786Y-13296786D01*
X12141071Y-13282500D01*
X12141071Y-13311071D01*
X9757500Y-13942500D02*
X9797500Y-13982500D01*
X9797500Y-13942500D02*
X9757500Y-13982500D01*
X10141071Y-13798214D02*
X10169643Y-13798214D01*
X10198214Y-13812500D01*
X10212500Y-13826786D01*
X10226786Y-13855357D01*
X10241071Y-13912500D01*
X10241071Y-13983929D01*
X10226786Y-14041071D01*
X10212500Y-14069643D01*
X10198214Y-14083929D01*
X10169643Y-14098214D01*
X10141071Y-14098214D01*
X10112500Y-14083929D01*
X10098214Y-14069643D01*
X10083928Y-14041071D01*
X10069643Y-13983929D01*
X10069643Y-13912500D01*
X10083928Y-13855357D01*
X10098214Y-13826786D01*
X10112500Y-13812500D01*
X10141071Y-13798214D01*
X10369643Y-14069643D02*
X10383928Y-14083929D01*
X10369643Y-14098214D01*
X10355357Y-14083929D01*
X10369643Y-14069643D01*
X10369643Y-14098214D01*
X10641071Y-13898214D02*
X10641071Y-14098214D01*
X10569643Y-13783929D02*
X10498214Y-13998214D01*
X10683928Y-13998214D01*
X10855357Y-13798214D02*
X10883928Y-13798214D01*
X10912500Y-13812500D01*
X10926786Y-13826786D01*
X10941071Y-13855357D01*
X10955357Y-13912500D01*
X10955357Y-13983929D01*
X10941071Y-14041071D01*
X10926786Y-14069643D01*
X10912500Y-14083929D01*
X10883928Y-14098214D01*
X10855357Y-14098214D01*
X10826786Y-14083929D01*
X10812500Y-14069643D01*
X10798214Y-14041071D01*
X10783928Y-13983929D01*
X10783928Y-13912500D01*
X10798214Y-13855357D01*
X10812500Y-13826786D01*
X10826786Y-13812500D01*
X10855357Y-13798214D01*
X11083928Y-14098214D02*
X11083928Y-13898214D01*
X11083928Y-13926786D02*
X11098214Y-13912500D01*
X11126786Y-13898214D01*
X11169643Y-13898214D01*
X11198214Y-13912500D01*
X11212500Y-13941071D01*
X11212500Y-14098214D01*
X11212500Y-13941071D02*
X11226786Y-13912500D01*
X11255357Y-13898214D01*
X11298214Y-13898214D01*
X11326786Y-13912500D01*
X11341071Y-13941071D01*
X11341071Y-14098214D01*
X11483928Y-14098214D02*
X11483928Y-13898214D01*
X11483928Y-13926786D02*
X11498214Y-13912500D01*
X11526786Y-13898214D01*
X11569643Y-13898214D01*
X11598214Y-13912500D01*
X11612500Y-13941071D01*
X11612500Y-14098214D01*
X11612500Y-13941071D02*
X11626786Y-13912500D01*
X11655357Y-13898214D01*
X11698214Y-13898214D01*
X11726786Y-13912500D01*
X11741071Y-13941071D01*
X11741071Y-14098214D01*
X12326786Y-13783929D02*
X12069643Y-14169643D01*
X12712500Y-13798214D02*
X12741071Y-13798214D01*
X12769643Y-13812500D01*
X12783928Y-13826786D01*
X12798214Y-13855357D01*
X12812500Y-13912500D01*
X12812500Y-13983929D01*
X12798214Y-14041071D01*
X12783928Y-14069643D01*
X12769643Y-14083929D01*
X12741071Y-14098214D01*
X12712500Y-14098214D01*
X12683928Y-14083929D01*
X12669643Y-14069643D01*
X12655357Y-14041071D01*
X12641071Y-13983929D01*
X12641071Y-13912500D01*
X12655357Y-13855357D01*
X12669643Y-13826786D01*
X12683928Y-13812500D01*
X12712500Y-13798214D01*
X12941071Y-14069643D02*
X12955357Y-14083929D01*
X12941071Y-14098214D01*
X12926786Y-14083929D01*
X12941071Y-14069643D01*
X12941071Y-14098214D01*
X13141071Y-13798214D02*
X13169643Y-13798214D01*
X13198214Y-13812500D01*
X13212500Y-13826786D01*
X13226786Y-13855357D01*
X13241071Y-13912500D01*
X13241071Y-13983929D01*
X13226786Y-14041071D01*
X13212500Y-14069643D01*
X13198214Y-14083929D01*
X13169643Y-14098214D01*
X13141071Y-14098214D01*
X13112500Y-14083929D01*
X13098214Y-14069643D01*
X13083928Y-14041071D01*
X13069643Y-13983929D01*
X13069643Y-13912500D01*
X13083928Y-13855357D01*
X13098214Y-13826786D01*
X13112500Y-13812500D01*
X13141071Y-13798214D01*
X13526786Y-14098214D02*
X13355357Y-14098214D01*
X13441071Y-14098214D02*
X13441071Y-13798214D01*
X13412500Y-13841071D01*
X13383928Y-13869643D01*
X13355357Y-13883929D01*
X13783928Y-13798214D02*
X13726786Y-13798214D01*
X13698214Y-13812500D01*
X13683928Y-13826786D01*
X13655357Y-13869643D01*
X13641071Y-13926786D01*
X13641071Y-14041071D01*
X13655357Y-14069643D01*
X13669643Y-14083929D01*
X13698214Y-14098214D01*
X13755357Y-14098214D01*
X13783928Y-14083929D01*
X13798214Y-14069643D01*
X13812500Y-14041071D01*
X13812500Y-13969643D01*
X13798214Y-13941071D01*
X13783928Y-13926786D01*
X13755357Y-13912500D01*
X13698214Y-13912500D01*
X13669643Y-13926786D01*
X13655357Y-13941071D01*
X13641071Y-13969643D01*
X13926786Y-13798214D02*
X13926786Y-13855357D01*
X14041071Y-13798214D02*
X14041071Y-13855357D01*
X14483928Y-14212500D02*
X14469643Y-14198214D01*
X14441071Y-14155357D01*
X14426786Y-14126786D01*
X14412500Y-14083929D01*
X14398214Y-14012500D01*
X14398214Y-13955357D01*
X14412500Y-13883929D01*
X14426786Y-13841071D01*
X14441071Y-13812500D01*
X14469643Y-13769643D01*
X14483928Y-13755357D01*
X14569643Y-13798214D02*
X14769643Y-13798214D01*
X14641071Y-14098214D01*
X15012500Y-13798214D02*
X14955357Y-13798214D01*
X14926786Y-13812500D01*
X14912500Y-13826786D01*
X14883928Y-13869643D01*
X14869643Y-13926786D01*
X14869643Y-14041071D01*
X14883928Y-14069643D01*
X14898214Y-14083929D01*
X14926786Y-14098214D01*
X14983928Y-14098214D01*
X15012500Y-14083929D01*
X15026786Y-14069643D01*
X15041071Y-14041071D01*
X15041071Y-13969643D01*
X15026786Y-13941071D01*
X15012500Y-13926786D01*
X14983928Y-13912500D01*
X14926786Y-13912500D01*
X14898214Y-13926786D01*
X14883928Y-13941071D01*
X14869643Y-13969643D01*
X15398214Y-14098214D02*
X15398214Y-13798214D01*
X15526786Y-14098214D02*
X15526786Y-13941071D01*
X15512500Y-13912500D01*
X15483928Y-13898214D01*
X15441071Y-13898214D01*
X15412500Y-13912500D01*
X15398214Y-13926786D01*
X15712500Y-14098214D02*
X15683928Y-14083929D01*
X15669643Y-14069643D01*
X15655357Y-14041071D01*
X15655357Y-13955357D01*
X15669643Y-13926786D01*
X15683928Y-13912500D01*
X15712500Y-13898214D01*
X15755357Y-13898214D01*
X15783928Y-13912500D01*
X15798214Y-13926786D01*
X15812500Y-13955357D01*
X15812500Y-14041071D01*
X15798214Y-14069643D01*
X15783928Y-14083929D01*
X15755357Y-14098214D01*
X15712500Y-14098214D01*
X15983928Y-14098214D02*
X15955357Y-14083929D01*
X15941071Y-14055357D01*
X15941071Y-13798214D01*
X16212500Y-14083929D02*
X16183928Y-14098214D01*
X16126786Y-14098214D01*
X16098214Y-14083929D01*
X16083928Y-14055357D01*
X16083928Y-13941071D01*
X16098214Y-13912500D01*
X16126786Y-13898214D01*
X16183928Y-13898214D01*
X16212500Y-13912500D01*
X16226786Y-13941071D01*
X16226786Y-13969643D01*
X16083928Y-13998214D01*
X16341071Y-14083929D02*
X16369643Y-14098214D01*
X16426786Y-14098214D01*
X16455357Y-14083929D01*
X16469643Y-14055357D01*
X16469643Y-14041071D01*
X16455357Y-14012500D01*
X16426786Y-13998214D01*
X16383928Y-13998214D01*
X16355357Y-13983929D01*
X16341071Y-13955357D01*
X16341071Y-13941071D01*
X16355357Y-13912500D01*
X16383928Y-13898214D01*
X16426786Y-13898214D01*
X16455357Y-13912500D01*
X16569643Y-14212500D02*
X16583928Y-14198214D01*
X16612500Y-14155357D01*
X16626786Y-14126786D01*
X16641071Y-14083929D01*
X16655357Y-14012500D01*
X16655357Y-13955357D01*
X16641071Y-13883929D01*
X16626786Y-13841071D01*
X16612500Y-13812500D01*
X16583928Y-13769643D01*
X16569643Y-13755357D01*
X9797500Y-14358500D02*
G75*
G03X9797500Y-14358500I-50000J0D01*
G01*
X10241071Y-14494214D02*
X10069643Y-14494214D01*
X10155357Y-14494214D02*
X10155357Y-14194214D01*
X10126786Y-14237071D01*
X10098214Y-14265643D01*
X10069643Y-14279929D01*
X10369643Y-14465643D02*
X10383928Y-14479929D01*
X10369643Y-14494214D01*
X10355357Y-14479929D01*
X10369643Y-14465643D01*
X10369643Y-14494214D01*
X10569643Y-14194214D02*
X10598214Y-14194214D01*
X10626786Y-14208500D01*
X10641071Y-14222786D01*
X10655357Y-14251357D01*
X10669643Y-14308500D01*
X10669643Y-14379929D01*
X10655357Y-14437071D01*
X10641071Y-14465643D01*
X10626786Y-14479929D01*
X10598214Y-14494214D01*
X10569643Y-14494214D01*
X10541071Y-14479929D01*
X10526786Y-14465643D01*
X10512500Y-14437071D01*
X10498214Y-14379929D01*
X10498214Y-14308500D01*
X10512500Y-14251357D01*
X10526786Y-14222786D01*
X10541071Y-14208500D01*
X10569643Y-14194214D01*
X10855357Y-14194214D02*
X10883928Y-14194214D01*
X10912500Y-14208500D01*
X10926786Y-14222786D01*
X10941071Y-14251357D01*
X10955357Y-14308500D01*
X10955357Y-14379929D01*
X10941071Y-14437071D01*
X10926786Y-14465643D01*
X10912500Y-14479929D01*
X10883928Y-14494214D01*
X10855357Y-14494214D01*
X10826786Y-14479929D01*
X10812500Y-14465643D01*
X10798214Y-14437071D01*
X10783928Y-14379929D01*
X10783928Y-14308500D01*
X10798214Y-14251357D01*
X10812500Y-14222786D01*
X10826786Y-14208500D01*
X10855357Y-14194214D01*
X11083928Y-14494214D02*
X11083928Y-14294214D01*
X11083928Y-14322786D02*
X11098214Y-14308500D01*
X11126786Y-14294214D01*
X11169643Y-14294214D01*
X11198214Y-14308500D01*
X11212500Y-14337071D01*
X11212500Y-14494214D01*
X11212500Y-14337071D02*
X11226786Y-14308500D01*
X11255357Y-14294214D01*
X11298214Y-14294214D01*
X11326786Y-14308500D01*
X11341071Y-14337071D01*
X11341071Y-14494214D01*
X11483928Y-14494214D02*
X11483928Y-14294214D01*
X11483928Y-14322786D02*
X11498214Y-14308500D01*
X11526786Y-14294214D01*
X11569643Y-14294214D01*
X11598214Y-14308500D01*
X11612500Y-14337071D01*
X11612500Y-14494214D01*
X11612500Y-14337071D02*
X11626786Y-14308500D01*
X11655357Y-14294214D01*
X11698214Y-14294214D01*
X11726786Y-14308500D01*
X11741071Y-14337071D01*
X11741071Y-14494214D01*
X12326786Y-14179929D02*
X12069643Y-14565643D01*
X12712500Y-14194214D02*
X12741071Y-14194214D01*
X12769643Y-14208500D01*
X12783928Y-14222786D01*
X12798214Y-14251357D01*
X12812500Y-14308500D01*
X12812500Y-14379929D01*
X12798214Y-14437071D01*
X12783928Y-14465643D01*
X12769643Y-14479929D01*
X12741071Y-14494214D01*
X12712500Y-14494214D01*
X12683928Y-14479929D01*
X12669643Y-14465643D01*
X12655357Y-14437071D01*
X12641071Y-14379929D01*
X12641071Y-14308500D01*
X12655357Y-14251357D01*
X12669643Y-14222786D01*
X12683928Y-14208500D01*
X12712500Y-14194214D01*
X12941071Y-14465643D02*
X12955357Y-14479929D01*
X12941071Y-14494214D01*
X12926786Y-14479929D01*
X12941071Y-14465643D01*
X12941071Y-14494214D01*
X13141071Y-14194214D02*
X13169643Y-14194214D01*
X13198214Y-14208500D01*
X13212500Y-14222786D01*
X13226786Y-14251357D01*
X13241071Y-14308500D01*
X13241071Y-14379929D01*
X13226786Y-14437071D01*
X13212500Y-14465643D01*
X13198214Y-14479929D01*
X13169643Y-14494214D01*
X13141071Y-14494214D01*
X13112500Y-14479929D01*
X13098214Y-14465643D01*
X13083928Y-14437071D01*
X13069643Y-14379929D01*
X13069643Y-14308500D01*
X13083928Y-14251357D01*
X13098214Y-14222786D01*
X13112500Y-14208500D01*
X13141071Y-14194214D01*
X13341071Y-14194214D02*
X13526786Y-14194214D01*
X13426786Y-14308500D01*
X13469643Y-14308500D01*
X13498214Y-14322786D01*
X13512500Y-14337071D01*
X13526786Y-14365643D01*
X13526786Y-14437071D01*
X13512500Y-14465643D01*
X13498214Y-14479929D01*
X13469643Y-14494214D01*
X13383928Y-14494214D01*
X13355357Y-14479929D01*
X13341071Y-14465643D01*
X13669643Y-14494214D02*
X13726786Y-14494214D01*
X13755357Y-14479929D01*
X13769643Y-14465643D01*
X13798214Y-14422786D01*
X13812500Y-14365643D01*
X13812500Y-14251357D01*
X13798214Y-14222786D01*
X13783928Y-14208500D01*
X13755357Y-14194214D01*
X13698214Y-14194214D01*
X13669643Y-14208500D01*
X13655357Y-14222786D01*
X13641071Y-14251357D01*
X13641071Y-14322786D01*
X13655357Y-14351357D01*
X13669643Y-14365643D01*
X13698214Y-14379929D01*
X13755357Y-14379929D01*
X13783928Y-14365643D01*
X13798214Y-14351357D01*
X13812500Y-14322786D01*
X13926786Y-14194214D02*
X13926786Y-14251357D01*
X14041071Y-14194214D02*
X14041071Y-14251357D01*
X14483928Y-14608500D02*
X14469643Y-14594214D01*
X14441071Y-14551357D01*
X14426786Y-14522786D01*
X14412500Y-14479929D01*
X14398214Y-14408500D01*
X14398214Y-14351357D01*
X14412500Y-14279929D01*
X14426786Y-14237071D01*
X14441071Y-14208500D01*
X14469643Y-14165643D01*
X14483928Y-14151357D01*
X14741071Y-14194214D02*
X14598214Y-14194214D01*
X14583928Y-14337071D01*
X14598214Y-14322786D01*
X14626786Y-14308500D01*
X14698214Y-14308500D01*
X14726786Y-14322786D01*
X14741071Y-14337071D01*
X14755357Y-14365643D01*
X14755357Y-14437071D01*
X14741071Y-14465643D01*
X14726786Y-14479929D01*
X14698214Y-14494214D01*
X14626786Y-14494214D01*
X14598214Y-14479929D01*
X14583928Y-14465643D01*
X14941071Y-14194214D02*
X14969643Y-14194214D01*
X14998214Y-14208500D01*
X15012500Y-14222786D01*
X15026786Y-14251357D01*
X15041071Y-14308500D01*
X15041071Y-14379929D01*
X15026786Y-14437071D01*
X15012500Y-14465643D01*
X14998214Y-14479929D01*
X14969643Y-14494214D01*
X14941071Y-14494214D01*
X14912500Y-14479929D01*
X14898214Y-14465643D01*
X14883928Y-14437071D01*
X14869643Y-14379929D01*
X14869643Y-14308500D01*
X14883928Y-14251357D01*
X14898214Y-14222786D01*
X14912500Y-14208500D01*
X14941071Y-14194214D01*
X15398214Y-14494214D02*
X15398214Y-14194214D01*
X15526786Y-14494214D02*
X15526786Y-14337071D01*
X15512500Y-14308500D01*
X15483928Y-14294214D01*
X15441071Y-14294214D01*
X15412500Y-14308500D01*
X15398214Y-14322786D01*
X15712500Y-14494214D02*
X15683928Y-14479929D01*
X15669643Y-14465643D01*
X15655357Y-14437071D01*
X15655357Y-14351357D01*
X15669643Y-14322786D01*
X15683928Y-14308500D01*
X15712500Y-14294214D01*
X15755357Y-14294214D01*
X15783928Y-14308500D01*
X15798214Y-14322786D01*
X15812500Y-14351357D01*
X15812500Y-14437071D01*
X15798214Y-14465643D01*
X15783928Y-14479929D01*
X15755357Y-14494214D01*
X15712500Y-14494214D01*
X15983928Y-14494214D02*
X15955357Y-14479929D01*
X15941071Y-14451357D01*
X15941071Y-14194214D01*
X16212500Y-14479929D02*
X16183928Y-14494214D01*
X16126786Y-14494214D01*
X16098214Y-14479929D01*
X16083928Y-14451357D01*
X16083928Y-14337071D01*
X16098214Y-14308500D01*
X16126786Y-14294214D01*
X16183928Y-14294214D01*
X16212500Y-14308500D01*
X16226786Y-14337071D01*
X16226786Y-14365643D01*
X16083928Y-14394214D01*
X16341071Y-14479929D02*
X16369643Y-14494214D01*
X16426786Y-14494214D01*
X16455357Y-14479929D01*
X16469643Y-14451357D01*
X16469643Y-14437071D01*
X16455357Y-14408500D01*
X16426786Y-14394214D01*
X16383928Y-14394214D01*
X16355357Y-14379929D01*
X16341071Y-14351357D01*
X16341071Y-14337071D01*
X16355357Y-14308500D01*
X16383928Y-14294214D01*
X16426786Y-14294214D01*
X16455357Y-14308500D01*
X16569643Y-14608500D02*
X16583928Y-14594214D01*
X16612500Y-14551357D01*
X16626786Y-14522786D01*
X16641071Y-14479929D01*
X16655357Y-14408500D01*
X16655357Y-14351357D01*
X16641071Y-14279929D01*
X16626786Y-14237071D01*
X16612500Y-14208500D01*
X16583928Y-14165643D01*
X16569643Y-14151357D01*
X9637500Y-14594500D02*
X9637500Y-14914500D01*
X9477500Y-14754500D02*
X9797500Y-14754500D01*
X10055357Y-14590214D02*
X10241071Y-14590214D01*
X10141071Y-14704500D01*
X10183928Y-14704500D01*
X10212500Y-14718786D01*
X10226786Y-14733071D01*
X10241071Y-14761643D01*
X10241071Y-14833071D01*
X10226786Y-14861643D01*
X10212500Y-14875929D01*
X10183928Y-14890214D01*
X10098214Y-14890214D01*
X10069643Y-14875929D01*
X10055357Y-14861643D01*
X10369643Y-14861643D02*
X10383928Y-14875929D01*
X10369643Y-14890214D01*
X10355357Y-14875929D01*
X10369643Y-14861643D01*
X10369643Y-14890214D01*
X10498214Y-14618786D02*
X10512500Y-14604500D01*
X10541071Y-14590214D01*
X10612500Y-14590214D01*
X10641071Y-14604500D01*
X10655357Y-14618786D01*
X10669643Y-14647357D01*
X10669643Y-14675929D01*
X10655357Y-14718786D01*
X10483928Y-14890214D01*
X10669643Y-14890214D01*
X10855357Y-14590214D02*
X10883928Y-14590214D01*
X10912500Y-14604500D01*
X10926786Y-14618786D01*
X10941071Y-14647357D01*
X10955357Y-14704500D01*
X10955357Y-14775929D01*
X10941071Y-14833071D01*
X10926786Y-14861643D01*
X10912500Y-14875929D01*
X10883928Y-14890214D01*
X10855357Y-14890214D01*
X10826786Y-14875929D01*
X10812500Y-14861643D01*
X10798214Y-14833071D01*
X10783928Y-14775929D01*
X10783928Y-14704500D01*
X10798214Y-14647357D01*
X10812500Y-14618786D01*
X10826786Y-14604500D01*
X10855357Y-14590214D01*
X11083928Y-14890214D02*
X11083928Y-14690214D01*
X11083928Y-14718786D02*
X11098214Y-14704500D01*
X11126786Y-14690214D01*
X11169643Y-14690214D01*
X11198214Y-14704500D01*
X11212500Y-14733071D01*
X11212500Y-14890214D01*
X11212500Y-14733071D02*
X11226786Y-14704500D01*
X11255357Y-14690214D01*
X11298214Y-14690214D01*
X11326786Y-14704500D01*
X11341071Y-14733071D01*
X11341071Y-14890214D01*
X11483928Y-14890214D02*
X11483928Y-14690214D01*
X11483928Y-14718786D02*
X11498214Y-14704500D01*
X11526786Y-14690214D01*
X11569643Y-14690214D01*
X11598214Y-14704500D01*
X11612500Y-14733071D01*
X11612500Y-14890214D01*
X11612500Y-14733071D02*
X11626786Y-14704500D01*
X11655357Y-14690214D01*
X11698214Y-14690214D01*
X11726786Y-14704500D01*
X11741071Y-14733071D01*
X11741071Y-14890214D01*
X12326786Y-14575929D02*
X12069643Y-14961643D01*
X12712500Y-14590214D02*
X12741071Y-14590214D01*
X12769643Y-14604500D01*
X12783928Y-14618786D01*
X12798214Y-14647357D01*
X12812500Y-14704500D01*
X12812500Y-14775929D01*
X12798214Y-14833071D01*
X12783928Y-14861643D01*
X12769643Y-14875929D01*
X12741071Y-14890214D01*
X12712500Y-14890214D01*
X12683928Y-14875929D01*
X12669643Y-14861643D01*
X12655357Y-14833071D01*
X12641071Y-14775929D01*
X12641071Y-14704500D01*
X12655357Y-14647357D01*
X12669643Y-14618786D01*
X12683928Y-14604500D01*
X12712500Y-14590214D01*
X12941071Y-14861643D02*
X12955357Y-14875929D01*
X12941071Y-14890214D01*
X12926786Y-14875929D01*
X12941071Y-14861643D01*
X12941071Y-14890214D01*
X13241071Y-14890214D02*
X13069643Y-14890214D01*
X13155357Y-14890214D02*
X13155357Y-14590214D01*
X13126786Y-14633071D01*
X13098214Y-14661643D01*
X13069643Y-14675929D01*
X13355357Y-14618786D02*
X13369643Y-14604500D01*
X13398214Y-14590214D01*
X13469643Y-14590214D01*
X13498214Y-14604500D01*
X13512500Y-14618786D01*
X13526786Y-14647357D01*
X13526786Y-14675929D01*
X13512500Y-14718786D01*
X13341071Y-14890214D01*
X13526786Y-14890214D01*
X13783928Y-14590214D02*
X13726786Y-14590214D01*
X13698214Y-14604500D01*
X13683928Y-14618786D01*
X13655357Y-14661643D01*
X13641071Y-14718786D01*
X13641071Y-14833071D01*
X13655357Y-14861643D01*
X13669643Y-14875929D01*
X13698214Y-14890214D01*
X13755357Y-14890214D01*
X13783928Y-14875929D01*
X13798214Y-14861643D01*
X13812500Y-14833071D01*
X13812500Y-14761643D01*
X13798214Y-14733071D01*
X13783928Y-14718786D01*
X13755357Y-14704500D01*
X13698214Y-14704500D01*
X13669643Y-14718786D01*
X13655357Y-14733071D01*
X13641071Y-14761643D01*
X13926786Y-14590214D02*
X13926786Y-14647357D01*
X14041071Y-14590214D02*
X14041071Y-14647357D01*
X14483928Y-15004500D02*
X14469643Y-14990214D01*
X14441071Y-14947357D01*
X14426786Y-14918786D01*
X14412500Y-14875929D01*
X14398214Y-14804500D01*
X14398214Y-14747357D01*
X14412500Y-14675929D01*
X14426786Y-14633071D01*
X14441071Y-14604500D01*
X14469643Y-14561643D01*
X14483928Y-14547357D01*
X14726786Y-14690214D02*
X14726786Y-14890214D01*
X14655357Y-14575929D02*
X14583928Y-14790214D01*
X14769643Y-14790214D01*
X15112500Y-14890214D02*
X15112500Y-14590214D01*
X15241071Y-14890214D02*
X15241071Y-14733071D01*
X15226786Y-14704500D01*
X15198214Y-14690214D01*
X15155357Y-14690214D01*
X15126786Y-14704500D01*
X15112500Y-14718786D01*
X15426786Y-14890214D02*
X15398214Y-14875929D01*
X15383928Y-14861643D01*
X15369643Y-14833071D01*
X15369643Y-14747357D01*
X15383928Y-14718786D01*
X15398214Y-14704500D01*
X15426786Y-14690214D01*
X15469643Y-14690214D01*
X15498214Y-14704500D01*
X15512500Y-14718786D01*
X15526786Y-14747357D01*
X15526786Y-14833071D01*
X15512500Y-14861643D01*
X15498214Y-14875929D01*
X15469643Y-14890214D01*
X15426786Y-14890214D01*
X15698214Y-14890214D02*
X15669643Y-14875929D01*
X15655357Y-14847357D01*
X15655357Y-14590214D01*
X15926786Y-14875929D02*
X15898214Y-14890214D01*
X15841071Y-14890214D01*
X15812500Y-14875929D01*
X15798214Y-14847357D01*
X15798214Y-14733071D01*
X15812500Y-14704500D01*
X15841071Y-14690214D01*
X15898214Y-14690214D01*
X15926786Y-14704500D01*
X15941071Y-14733071D01*
X15941071Y-14761643D01*
X15798214Y-14790214D01*
X16055357Y-14875929D02*
X16083928Y-14890214D01*
X16141071Y-14890214D01*
X16169643Y-14875929D01*
X16183928Y-14847357D01*
X16183928Y-14833071D01*
X16169643Y-14804500D01*
X16141071Y-14790214D01*
X16098214Y-14790214D01*
X16069643Y-14775929D01*
X16055357Y-14747357D01*
X16055357Y-14733071D01*
X16069643Y-14704500D01*
X16098214Y-14690214D01*
X16141071Y-14690214D01*
X16169643Y-14704500D01*
X16283928Y-15004500D02*
X16298214Y-14990214D01*
X16326786Y-14947357D01*
X16341071Y-14918786D01*
X16355357Y-14875929D01*
X16369643Y-14804500D01*
X16369643Y-14747357D01*
X16355357Y-14675929D01*
X16341071Y-14633071D01*
X16326786Y-14604500D01*
X16298214Y-14561643D01*
X16283928Y-14547357D01*
X16826786Y-15004500D02*
X16812500Y-14990214D01*
X16783928Y-14947357D01*
X16769643Y-14918786D01*
X16755357Y-14875929D01*
X16741071Y-14804500D01*
X16741071Y-14747357D01*
X16755357Y-14675929D01*
X16769643Y-14633071D01*
X16783928Y-14604500D01*
X16812500Y-14561643D01*
X16826786Y-14547357D01*
X16941071Y-14690214D02*
X16941071Y-14890214D01*
X16941071Y-14718786D02*
X16955357Y-14704500D01*
X16983928Y-14690214D01*
X17026786Y-14690214D01*
X17055357Y-14704500D01*
X17069643Y-14733071D01*
X17069643Y-14890214D01*
X17255357Y-14890214D02*
X17226786Y-14875929D01*
X17212500Y-14861643D01*
X17198214Y-14833071D01*
X17198214Y-14747357D01*
X17212500Y-14718786D01*
X17226786Y-14704500D01*
X17255357Y-14690214D01*
X17298214Y-14690214D01*
X17326786Y-14704500D01*
X17341071Y-14718786D01*
X17355357Y-14747357D01*
X17355357Y-14833071D01*
X17341071Y-14861643D01*
X17326786Y-14875929D01*
X17298214Y-14890214D01*
X17255357Y-14890214D01*
X17441071Y-14690214D02*
X17555357Y-14690214D01*
X17483928Y-14590214D02*
X17483928Y-14847357D01*
X17498214Y-14875929D01*
X17526786Y-14890214D01*
X17555357Y-14890214D01*
X17883928Y-14690214D02*
X17883928Y-14990214D01*
X17883928Y-14704500D02*
X17912500Y-14690214D01*
X17969643Y-14690214D01*
X17998214Y-14704500D01*
X18012500Y-14718786D01*
X18026786Y-14747357D01*
X18026786Y-14833071D01*
X18012500Y-14861643D01*
X17998214Y-14875929D01*
X17969643Y-14890214D01*
X17912500Y-14890214D01*
X17883928Y-14875929D01*
X18198214Y-14890214D02*
X18169643Y-14875929D01*
X18155357Y-14847357D01*
X18155357Y-14590214D01*
X18441071Y-14890214D02*
X18441071Y-14733071D01*
X18426786Y-14704500D01*
X18398214Y-14690214D01*
X18341071Y-14690214D01*
X18312500Y-14704500D01*
X18441071Y-14875929D02*
X18412500Y-14890214D01*
X18341071Y-14890214D01*
X18312500Y-14875929D01*
X18298214Y-14847357D01*
X18298214Y-14818786D01*
X18312500Y-14790214D01*
X18341071Y-14775929D01*
X18412500Y-14775929D01*
X18441071Y-14761643D01*
X18541071Y-14690214D02*
X18655357Y-14690214D01*
X18583928Y-14590214D02*
X18583928Y-14847357D01*
X18598214Y-14875929D01*
X18626786Y-14890214D01*
X18655357Y-14890214D01*
X18869643Y-14875929D02*
X18841071Y-14890214D01*
X18783928Y-14890214D01*
X18755357Y-14875929D01*
X18741071Y-14847357D01*
X18741071Y-14733071D01*
X18755357Y-14704500D01*
X18783928Y-14690214D01*
X18841071Y-14690214D01*
X18869643Y-14704500D01*
X18883928Y-14733071D01*
X18883928Y-14761643D01*
X18741071Y-14790214D01*
X19141071Y-14890214D02*
X19141071Y-14590214D01*
X19141071Y-14875929D02*
X19112500Y-14890214D01*
X19055357Y-14890214D01*
X19026786Y-14875929D01*
X19012500Y-14861643D01*
X18998214Y-14833071D01*
X18998214Y-14747357D01*
X19012500Y-14718786D01*
X19026786Y-14704500D01*
X19055357Y-14690214D01*
X19112500Y-14690214D01*
X19141071Y-14704500D01*
X19255357Y-15004500D02*
X19269643Y-14990214D01*
X19298214Y-14947357D01*
X19312500Y-14918786D01*
X19326786Y-14875929D01*
X19341071Y-14804500D01*
X19341071Y-14747357D01*
X19326786Y-14675929D01*
X19312500Y-14633071D01*
X19298214Y-14604500D01*
X19269643Y-14561643D01*
X19255357Y-14547357D01*
M02*
