M48
; DRILL file {KiCad (5.1.2)-1} date 2025/05/14 22:38:22
; FORMAT={-:-/ absolute / metric / decimal}
; #@! TF.CreationDate,2025-05-14T22:38:22+09:00
; #@! TF.GenerationSoftware,Kicad,Pcbnew,(5.1.2)-1
FMAT,2
METRIC
T1C0.400
T2C1.000
T3C3.200
%
G90
G05
T1
X114.8Y-113.2
X115.6Y-121.4
X115.969Y-111.481
X116.0Y-117.1
X116.1Y-125.3
X116.238Y-103.017
X117.4Y-120.1
X117.9Y-127.6
X119.1Y-128.0
X120.8Y-125.2
X121.1Y-119.5
X122.0Y-114.6
X122.066Y-126.174
X122.797Y-104.72
X123.273Y-106.238
X123.912Y-105.462
X124.654Y-106.771
X124.7Y-119.9
X125.0Y-114.6
X125.165Y-111.813
X125.201Y-101.803
X126.032Y-127.6
X126.097Y-115.714
X127.137Y-106.662
X127.4Y-120.6
X127.438Y-117.117
X129.238Y-94.217
X130.138Y-107.217
X130.4Y-98.2
X131.168Y-100.124
X131.382Y-104.33
X135.238Y-123.917
X135.3Y-126.5
X139.7Y-116.6
X139.838Y-109.817
X140.138Y-98.717
X141.138Y-128.717
X149.938Y-128.217
X154.538Y-95.117
X154.55Y-100.275
X160.3Y-96.7
X161.576Y-101.299
X162.11Y-109.16
X162.532Y-124.998
X162.974Y-119.754
X163.138Y-127.017
X163.2Y-114.9
X164.6Y-118.4
X164.638Y-127.417
X164.809Y-125.812
X165.5Y-126.8
X166.1Y-111.8
X166.1Y-114.3
X166.495Y-123.256
X166.727Y-101.009
X167.26Y-123.93
X167.773Y-118.945
X168.293Y-104.436
X168.4Y-114.0
X168.525Y-105.633
X169.5Y-119.1
X169.514Y-105.899
X169.55Y-114.469
X169.619Y-108.829
X171.067Y-104.142
X171.138Y-124.417
X171.822Y-120.593
X172.538Y-104.917
X172.538Y-114.605
X172.57Y-113.605
X173.238Y-97.017
X174.238Y-104.217
X180.538Y-116.517
X181.019Y-110.187
X182.238Y-124.017
X184.038Y-127.917
T2
X185.5Y-103.0
X185.5Y-105.54
X185.5Y-108.08
X185.5Y-110.62
X185.5Y-113.16
X185.5Y-115.7
X185.5Y-118.24
X185.5Y-120.78
X185.5Y-123.32
X185.5Y-125.86
X100.0Y-103.0
X100.0Y-105.54
X100.0Y-108.08
X100.0Y-110.62
X100.0Y-113.16
X100.0Y-115.7
X100.0Y-118.24
X100.0Y-120.78
X100.0Y-123.32
X100.0Y-125.86
X115.92Y-94.0
X118.46Y-94.0
X121.0Y-94.0
X123.54Y-94.0
X126.08Y-94.0
X148.0Y-103.0
X148.0Y-105.54
X148.0Y-108.08
X148.0Y-110.62
X148.0Y-113.16
X148.0Y-115.7
X148.0Y-118.24
X148.0Y-120.78
X148.0Y-123.32
X148.0Y-125.86
X143.0Y-103.0
X143.0Y-105.54
X143.0Y-108.08
X143.0Y-110.62
X143.0Y-113.16
X143.0Y-115.7
X143.0Y-118.24
X143.0Y-120.78
X143.0Y-123.32
X143.0Y-125.86
X162.0Y-94.0
X164.54Y-94.0
X167.08Y-94.0
X169.62Y-94.0
X172.16Y-94.0
T3
X101.0Y-95.0
X149.0Y-95.0
X184.0Y-95.0
X142.0Y-95.0
T0
M30
